<svg width="173" height="131" viewBox="0 0 173 131" fill="none" xmlns="http://www.w3.org/2000/svg">
<g clip-path="url(#clip0_6_544)">
<mask id="mask0_6_544" style="mask-type:alpha" maskUnits="userSpaceOnUse" x="0" y="13" width="173" height="103">
<rect y="13.9611" width="172.941" height="101.572" fill="url(#paint0_linear_6_544)"/>
</mask>
<g mask="url(#mask0_6_544)">
<path d="M151.266 27.3012L141.491 22.8964L101.235 23.0663L94.2659 19.6894L88.3696 22.9935L63.1739 22.9004L53.1904 16.7252H38.6741L36.4287 22.8984H23.7768L0 73.9759L26.4677 114.277H146.531L172.998 73.9759L151.265 27.2992L151.266 27.3012ZM145.92 112.45H27.0782L1.68892 73.7898L24.5283 24.7255H37.2762L39.5201 18.5522H52.8949L62.8754 24.7255L88.6381 24.8206L94.3004 21.646L100.999 24.8934L141.272 24.7235L150.375 28.8248L171.31 73.7858L145.92 112.446V112.45Z" fill="url(#paint1_linear_6_544)"/>
</g>
<path d="M171.311 73.7896L145.92 112.448H27.0781L1.68887 73.7896L24.5282 24.7253H37.2761L39.52 18.5521H52.8948L62.8769 24.7253L88.6381 24.8224L94.3003 21.6478L100.999 24.8953L141.272 24.7253L150.375 28.8287L171.311 73.7896Z" fill="url(#paint2_linear_6_544)"/>
<path d="M171.308 73.7895L150.376 28.8286L141.27 24.7273L101 24.8932L94.3015 21.6457L88.6362 24.8203L62.875 24.7273L52.8945 18.554H39.5212L37.2773 24.7273H24.5309L1.69003 73.7895H16.9638L28.4757 85.3328H47.1198L49.9112 73.7895H62.0051L64.7844 57.457H67.5428L71.2686 55.2678L70.4871 66.3517L80.7886 73.7895H171.308Z" fill="#4A357D"/>
<path d="M9.77798 67.7581H22.7898L25.0262 61.9713H19.256L23.3388 52.3158L30.0285 49.0299L32.1419 43.5669L25.7747 46.5554L29.163 38.5408L27.1666 34.4719H30.8849H35.6577L37.0931 30.759H27.0031L9.77798 67.7581Z" fill="white"/>
<path d="M42.3099 24.5836L34.7563 45.3755L43.9148 52.7082L47.5086 55.2131L42.0699 59.1971L38.2316 72.6908H32.0714L38.6591 52.1477L33.7378 48.1779L24.4338 73.7834L29.952 79.3011H43.8758L50.774 50.7637L41.3469 43.7649L46.4212 27.9423H50.957L54.0438 29.6925L49.6775 32.4423L46.6972 42.9253L51.7774 46.6078L56.4212 27.396L51.9124 24.5836H42.3099Z" fill="white"/>
<path d="M59.2905 30.7587L51.4129 67.7577H58.4431L61.2239 51.4252H66.6117L73.3043 47.4938L74.5448 33.909L69.379 30.7587H59.289H59.2905ZM68.3246 38.6477L67.2446 46.7108H62.0279L64.1113 34.4695H68.884L72.4059 36.4018L68.3246 38.6457V38.6477Z" fill="white"/>
<path d="M77.4877 30.7587L75.2198 62.928L81.9095 67.7577H94.9214L93.192 33.909L87.5792 30.7587H77.4892H77.4877ZM87.6737 42.1421L87.8417 61.9689H82.0715L82.838 34.4695H87.6107L91.2781 36.4018L87.6752 42.1421H87.6737Z" fill="white"/>
<path d="M97.0392 33.9232L99.7616 67.7577H106.792L104.78 51.4252H110.168L112.772 67.7577H119.804L116.649 52.1475L112.511 49.7843L115.709 47.4938L112.326 30.7587H102.236L97.0392 33.9232V33.9232ZM109.418 46.7108H104.201L103.214 38.6902L99.1436 36.4038L102.694 34.4715H107.467L109.418 46.7128V46.7108Z" fill="white"/>
<path d="M114.935 34.4715H119.634L128.02 67.7577H135.052L126.43 38.4919L121.506 34.427H129.858L128.649 30.7587H114.132L114.935 34.4715Z" fill="white"/>
<path d="M153.375 46.6076L147.443 33.8665L140.543 30.7587H130.453L135.481 45.3754L149.825 52.708L153.742 61.9709H147.971L144.174 52.1475L136.444 48.1777L141.516 62.928L150.209 67.7577H163.22L155.308 50.7636L140.933 43.7648L138.919 38.5526L133.625 34.4715H142.113L145.688 42.9251L153.375 46.6076Z" fill="white"/>
<path d="M94.5368 26.3254C93.8004 27.2946 92.9664 28.1929 92.05 29.0083C93.0519 29.8318 94.0044 30.7707 94.8938 31.8087C95.6483 30.7707 96.4792 29.8318 97.3732 29.0083C96.3502 28.1929 95.3993 27.2946 94.5368 26.3254Z" fill="#E2D45C"/>
<path d="M17.7069 63.185L21.9292 53.1977C20.3632 53.4385 18.8108 53.6853 17.2719 53.9423L11.4057 66.5437H22.2441L23.5416 63.185H17.7069V63.185Z" fill="url(#paint3_linear_6_544)"/>
<path d="M47.9799 50.0754C46.303 50.2231 44.6365 50.3809 42.9806 50.5488L44.3516 51.6455L48.8558 54.7837L49.6868 51.342L47.9799 50.0754V50.0754ZM42.7901 60.0485L38.8513 73.9044H30.7022L37.5209 52.643L35.88 51.3197C35.082 51.4128 34.2856 51.5079 33.4936 51.6071L25.5725 73.4087L30.2492 78.0867H43.2221L48.6128 55.7853L42.7901 60.0485V60.0485Z" fill="url(#paint4_linear_6_544)"/>
<path d="M69.0167 48.6895L66.4263 50.211H60.5091L57.7283 66.5435H52.609L56.2553 49.4158C60.4521 49.1184 64.7074 48.8756 69.0167 48.6895Z" fill="url(#paint5_linear_6_544)"/>
<path d="M93.957 66.5437H82.136L76.1723 62.24L77.1488 48.4023C78.6112 48.3618 80.0781 48.3295 81.5511 48.3032L81.1371 63.1849H88.7522L88.6262 48.2243C89.2997 48.2222 89.9747 48.2202 90.6511 48.2202C91.4431 48.2202 92.2335 48.2222 93.021 48.2263L93.957 66.5437V66.5437Z" fill="url(#paint6_linear_6_544)"/>
<path d="M118.626 66.5436H113.5L110.896 50.2111H103.719L105.73 66.5436H100.569L99.1003 48.2909C103.492 48.3637 107.837 48.4953 112.13 48.6814L110.419 49.9076L115.896 53.0357L118.626 66.5436V66.5436Z" fill="url(#paint7_linear_6_544)"/>
<path d="M128.762 49.693C127.295 49.5777 125.82 49.4684 124.338 49.3672L128.666 66.5435H133.726L128.762 49.693Z" fill="url(#paint8_linear_6_544)"/>
<path d="M155.087 52.5685C153.583 52.356 152.068 52.1496 150.541 51.9514L155.292 63.185H147.425L143.535 53.1188L138.58 50.5735C138.469 50.5613 138.36 50.5512 138.249 50.5411L142.186 61.9872L150.386 66.5438H161.594L155.087 52.5685V52.5685Z" fill="url(#paint9_linear_6_544)"/>
<path fill-rule="evenodd" clip-rule="evenodd" d="M71.6937 94.9844V92.4876L66.5805 95.0532H66.57V97.6148H66.5805L71.6937 100.18V97.6795L69.0734 96.3279L71.6937 94.9844V94.9844Z" fill="#996DFF"/>
<path fill-rule="evenodd" clip-rule="evenodd" d="M101.312 100.051V97.5541L103.93 96.2106L101.312 94.8671V92.3702L106.417 94.9338H106.429V97.4974H106.417L101.312 100.049V100.051ZM99.1187 88.8435L96.1158 101.846H97.8992L100.902 88.8435H99.1187Z" fill="#996DFF"/>
<path fill-rule="evenodd" clip-rule="evenodd" d="M79.2072 92.016C79.7141 92.7687 79.9811 93.7602 79.9496 94.7759V100.314H78.1662V95.2838C78.1872 94.7233 78.0537 94.1729 77.7942 93.7359C77.5467 93.3474 77.1808 93.1329 76.8013 93.1552C75.6853 93.1552 75.1258 94.1992 75.1258 96.2894V100.316H73.3424V91.2229H75.1258V92.0444C75.6913 91.3018 76.4593 90.9072 77.2482 90.9518C77.9832 90.9093 78.6972 91.2978 79.2056 92.016H79.2072Z" fill="white"/>
<path fill-rule="evenodd" clip-rule="evenodd" d="M82.219 87.4413V100.443H84.0024V87.4413H82.219Z" fill="white"/>
<path fill-rule="evenodd" clip-rule="evenodd" d="M94.0786 99.9678H92.5906L91.1327 94.612L89.6613 99.9678H88.1764L85.6775 90.8587H87.5824L88.9863 96.3056L90.4338 90.8587H91.8242L93.2716 96.3238L94.6755 90.8587H96.5805L94.0786 99.9678V99.9678Z" fill="white"/>
<path d="M7.27036 21.2292C9.28926 14.6512 13.3661 9.4674 19.3838 5.82334C25.1495 2.33104 32.4556 0.388616 41.0967 0.0527395C58.8108 -0.637224 80.1953 5.47735 101.307 17.2755C102.825 18.1233 104.329 18.9933 105.817 19.8856L103.713 19.8937C102.81 19.3656 101.899 18.8456 100.981 18.3337C57.7279 -5.83319 16.0404 -4.33794 8.05482 21.6682C5.74193 29.1991 6.5054 37.9704 9.80823 47.2212C17.9063 69.9191 41.2857 95.4963 72.0162 112.667C74.989 114.328 77.9649 115.874 80.9362 117.304C98.9638 125.988 116.769 130.389 131.877 129.8C140.407 129.468 147.602 127.56 153.266 124.131C159.081 120.61 163.009 115.631 164.943 109.332C166.687 103.648 166.681 97.2587 165.153 90.4885L165.805 89.4951C167.596 96.9572 167.572 103.77 165.729 109.771C163.708 116.349 159.633 121.533 153.614 125.177C147.848 128.669 140.543 130.612 131.902 130.948C130.999 130.982 130.087 131 129.166 131C113.938 131 96.249 126.211 78.4524 117.304C76.198 116.177 73.9436 114.983 71.6907 113.725C50.5792 101.929 32.2531 85.8571 20.0887 68.4704C15.3055 61.6335 11.6816 54.8876 9.28026 48.3542C8.70129 46.7821 8.19431 45.2241 7.75933 43.6803C5.41495 35.3623 5.24996 27.8091 7.27036 21.2292V21.2292Z" fill="url(#paint10_linear_6_544)"/>
<path d="M7.27036 21.2292C9.28926 14.6512 13.3661 9.4674 19.3838 5.82334C25.1495 2.33104 32.4556 0.388616 41.0967 0.0527395C58.8108 -0.637224 80.1953 5.47735 101.307 17.2755C102.825 18.1233 104.329 18.9933 105.817 19.8856L103.713 19.8937C102.81 19.3656 101.899 18.8456 100.981 18.3337C57.7279 -5.83319 16.0404 -4.33794 8.05482 21.6682C5.74193 29.1991 6.5054 37.9704 9.80823 47.2212C17.9063 69.9191 41.2857 95.4963 72.0162 112.667C74.989 114.328 77.9649 115.874 80.9362 117.304C98.9638 125.988 116.769 130.389 131.877 129.8C140.407 129.468 147.602 127.56 153.266 124.131C159.081 120.61 163.009 115.631 164.943 109.332C166.687 103.648 166.681 97.2587 165.153 90.4885L165.805 89.4951C167.596 96.9572 167.572 103.77 165.729 109.771C163.708 116.349 159.633 121.533 153.614 125.177C147.848 128.669 140.543 130.612 131.902 130.948C130.999 130.982 130.087 131 129.166 131C113.938 131 96.249 126.211 78.4524 117.304C76.198 116.177 73.9436 114.983 71.6907 113.725C50.5792 101.929 32.2531 85.8571 20.0887 68.4704C15.3055 61.6335 11.6816 54.8876 9.28026 48.3542C8.70129 46.7821 8.19431 45.2241 7.75933 43.6803C5.41495 35.3623 5.24996 27.8091 7.27036 21.2292V21.2292Z" fill="url(#paint11_radial_6_544)"/>
<path d="M7.27036 21.2292C9.28926 14.6512 13.3661 9.4674 19.3838 5.82334C25.1495 2.33104 32.4556 0.388616 41.0967 0.0527395C58.8108 -0.637224 80.1953 5.47735 101.307 17.2755C102.825 18.1233 104.329 18.9933 105.817 19.8856L103.713 19.8937C102.81 19.3656 101.899 18.8456 100.981 18.3337C57.7279 -5.83319 16.0404 -4.33794 8.05482 21.6682C5.74193 29.1991 6.5054 37.9704 9.80823 47.2212C17.9063 69.9191 41.2857 95.4963 72.0162 112.667C74.989 114.328 77.9649 115.874 80.9362 117.304C98.9638 125.988 116.769 130.389 131.877 129.8C140.407 129.468 147.602 127.56 153.266 124.131C159.081 120.61 163.009 115.631 164.943 109.332C166.687 103.648 166.681 97.2587 165.153 90.4885L165.805 89.4951C167.596 96.9572 167.572 103.77 165.729 109.771C163.708 116.349 159.633 121.533 153.614 125.177C147.848 128.669 140.543 130.612 131.902 130.948C130.999 130.982 130.087 131 129.166 131C113.938 131 96.249 126.211 78.4524 117.304C76.198 116.177 73.9436 114.983 71.6907 113.725C50.5792 101.929 32.2531 85.8571 20.0887 68.4704C15.3055 61.6335 11.6816 54.8876 9.28026 48.3542C8.70129 46.7821 8.19431 45.2241 7.75933 43.6803C5.41495 35.3623 5.24996 27.8091 7.27036 21.2292V21.2292Z" fill="url(#paint12_radial_6_544)"/>
<path d="M7.27036 21.2292C9.28926 14.6512 13.3661 9.4674 19.3838 5.82334C25.1495 2.33104 32.4556 0.388616 41.0967 0.0527395C58.8108 -0.637224 80.1953 5.47735 101.307 17.2755C102.825 18.1233 104.329 18.9933 105.817 19.8856L103.713 19.8937C102.81 19.3656 101.899 18.8456 100.981 18.3337C57.7279 -5.83319 16.0404 -4.33794 8.05482 21.6682C5.74193 29.1991 6.5054 37.9704 9.80823 47.2212C17.9063 69.9191 41.2857 95.4963 72.0162 112.667C74.989 114.328 77.9649 115.874 80.9362 117.304C98.9638 125.988 116.769 130.389 131.877 129.8C140.407 129.468 147.602 127.56 153.266 124.131C159.081 120.61 163.009 115.631 164.943 109.332C166.687 103.648 166.681 97.2587 165.153 90.4885L165.805 89.4951C167.596 96.9572 167.572 103.77 165.729 109.771C163.708 116.349 159.633 121.533 153.614 125.177C147.848 128.669 140.543 130.612 131.902 130.948C130.999 130.982 130.087 131 129.166 131C113.938 131 96.249 126.211 78.4524 117.304C76.198 116.177 73.9436 114.983 71.6907 113.725C50.5792 101.929 32.2531 85.8571 20.0887 68.4704C15.3055 61.6335 11.6816 54.8876 9.28026 48.3542C8.70129 46.7821 8.19431 45.2241 7.75933 43.6803C5.41495 35.3623 5.24996 27.8091 7.27036 21.2292V21.2292Z" fill="url(#paint13_radial_6_544)"/>
<path d="M165.728 21.2292C163.71 14.6512 159.633 9.4674 153.615 5.82334C147.849 2.33104 140.543 0.388616 131.902 0.0527395C114.188 -0.637224 92.8035 5.47735 71.6921 17.2755C70.1741 18.1233 68.6697 18.9933 67.1818 19.8856L69.2862 19.8937C70.1891 19.3656 71.0996 18.8456 72.0176 18.3337C115.271 -5.83319 156.958 -4.33794 164.944 21.6682C167.257 29.1991 166.493 37.9704 163.191 47.2212C155.092 69.9191 131.713 95.4963 100.983 112.667C98.0098 114.328 95.0339 115.874 92.0626 117.304C74.035 125.988 56.2293 130.389 41.1221 129.8C32.592 129.468 25.3969 127.56 19.7331 124.131C13.9179 120.61 9.98961 115.631 8.05621 109.332C6.31179 103.648 6.31779 97.2587 7.84622 90.4885L7.19375 89.4951C5.40284 96.9572 5.42684 103.77 7.27025 109.771C9.29065 116.349 13.3659 121.533 19.3851 125.177C25.1509 128.669 32.4555 130.612 41.0966 130.948C41.9995 130.982 42.9115 131 43.8324 131C59.0612 131 76.7498 126.211 94.5465 117.304C96.8008 116.177 99.0552 114.983 101.308 113.725C122.42 101.929 140.746 85.8571 152.91 68.4704C157.693 61.6335 161.317 54.8876 163.719 48.3542C164.298 46.7821 164.805 45.2241 165.239 43.6803C167.584 35.3623 167.749 27.8091 165.728 21.2292V21.2292Z" fill="url(#paint14_linear_6_544)"/>
<path d="M165.728 21.2292C163.71 14.6512 159.633 9.4674 153.615 5.82334C147.849 2.33104 140.543 0.388616 131.902 0.0527395C114.188 -0.637224 92.8035 5.47735 71.6921 17.2755C70.1741 18.1233 68.6697 18.9933 67.1818 19.8856L69.2862 19.8937C70.1891 19.3656 71.0996 18.8456 72.0176 18.3337C115.271 -5.83319 156.958 -4.33794 164.944 21.6682C167.257 29.1991 166.493 37.9704 163.191 47.2212C155.092 69.9191 131.713 95.4963 100.983 112.667C98.0098 114.328 95.0339 115.874 92.0626 117.304C74.035 125.988 56.2293 130.389 41.1221 129.8C32.592 129.468 25.3969 127.56 19.7331 124.131C13.9179 120.61 9.98961 115.631 8.05621 109.332C6.31179 103.648 6.31779 97.2587 7.84622 90.4885L7.19375 89.4951C5.40284 96.9572 5.42684 103.77 7.27025 109.771C9.29065 116.349 13.3659 121.533 19.3851 125.177C25.1509 128.669 32.4555 130.612 41.0966 130.948C41.9995 130.982 42.9115 131 43.8324 131C59.0612 131 76.7498 126.211 94.5465 117.304C96.8008 116.177 99.0552 114.983 101.308 113.725C122.42 101.929 140.746 85.8571 152.91 68.4704C157.693 61.6335 161.317 54.8876 163.719 48.3542C164.298 46.7821 164.805 45.2241 165.239 43.6803C167.584 35.3623 167.749 27.8091 165.728 21.2292V21.2292Z" fill="url(#paint15_radial_6_544)"/>
<path d="M165.728 21.2292C163.71 14.6512 159.633 9.4674 153.615 5.82334C147.849 2.33104 140.543 0.388616 131.902 0.0527395C114.188 -0.637224 92.8035 5.47735 71.6921 17.2755C70.1741 18.1233 68.6697 18.9933 67.1818 19.8856L69.2862 19.8937C70.1891 19.3656 71.0996 18.8456 72.0176 18.3337C115.271 -5.83319 156.958 -4.33794 164.944 21.6682C167.257 29.1991 166.493 37.9704 163.191 47.2212C155.092 69.9191 131.713 95.4963 100.983 112.667C98.0098 114.328 95.0339 115.874 92.0626 117.304C74.035 125.988 56.2293 130.389 41.1221 129.8C32.592 129.468 25.3969 127.56 19.7331 124.131C13.9179 120.61 9.98961 115.631 8.05621 109.332C6.31179 103.648 6.31779 97.2587 7.84622 90.4885L7.19375 89.4951C5.40284 96.9572 5.42684 103.77 7.27025 109.771C9.29065 116.349 13.3659 121.533 19.3851 125.177C25.1509 128.669 32.4555 130.612 41.0966 130.948C41.9995 130.982 42.9115 131 43.8324 131C59.0612 131 76.7498 126.211 94.5465 117.304C96.8008 116.177 99.0552 114.983 101.308 113.725C122.42 101.929 140.746 85.8571 152.91 68.4704C157.693 61.6335 161.317 54.8876 163.719 48.3542C164.298 46.7821 164.805 45.2241 165.239 43.6803C167.584 35.3623 167.749 27.8091 165.728 21.2292V21.2292Z" fill="url(#paint16_radial_6_544)"/>
</g>
<defs>
<linearGradient id="paint0_linear_6_544" x1="86.4707" y1="61.2064" x2="86.4707" y2="110.981" gradientUnits="userSpaceOnUse">
<stop stop-color="#D9D9D9"/>
<stop offset="1" stop-color="#D9D9D9" stop-opacity="0"/>
</linearGradient>
<linearGradient id="paint1_linear_6_544" x1="0" y1="65.5001" x2="173" y2="65.5001" gradientUnits="userSpaceOnUse">
<stop stop-color="#996DFF"/>
<stop offset="0.5" stop-color="#35E8B3"/>
<stop offset="1" stop-color="#E2D45C"/>
</linearGradient>
<linearGradient id="paint2_linear_6_544" x1="86.4992" y1="75.2525" x2="86.4992" y2="111.487" gradientUnits="userSpaceOnUse">
<stop stop-color="#28203E"/>
<stop offset="1" stop-color="#121214" stop-opacity="0"/>
</linearGradient>
<linearGradient id="paint3_linear_6_544" x1="17.4744" y1="49.9563" x2="17.4744" y2="64.2351" gradientUnits="userSpaceOnUse">
<stop stop-color="#A9A9AD"/>
<stop offset="1" stop-color="#A9A9AD" stop-opacity="0"/>
</linearGradient>
<linearGradient id="paint4_linear_6_544" x1="37.6304" y1="49.956" x2="37.6304" y2="64.2348" gradientUnits="userSpaceOnUse">
<stop stop-color="#A9A9AD"/>
<stop offset="1" stop-color="#A9A9AD" stop-opacity="0"/>
</linearGradient>
<linearGradient id="paint5_linear_6_544" x1="60.8136" y1="49.9561" x2="60.8136" y2="64.2349" gradientUnits="userSpaceOnUse">
<stop stop-color="#A9A9AD"/>
<stop offset="1" stop-color="#A9A9AD" stop-opacity="0"/>
</linearGradient>
<linearGradient id="paint6_linear_6_544" x1="85.0654" y1="49.9563" x2="85.0654" y2="64.2351" gradientUnits="userSpaceOnUse">
<stop stop-color="#A9A9AD"/>
<stop offset="1" stop-color="#A9A9AD" stop-opacity="0"/>
</linearGradient>
<linearGradient id="paint7_linear_6_544" x1="108.863" y1="49.9561" x2="108.863" y2="64.2349" gradientUnits="userSpaceOnUse">
<stop stop-color="#A9A9AD"/>
<stop offset="1" stop-color="#A9A9AD" stop-opacity="0"/>
</linearGradient>
<linearGradient id="paint8_linear_6_544" x1="129.033" y1="49.956" x2="129.033" y2="64.2348" gradientUnits="userSpaceOnUse">
<stop stop-color="#A9A9AD"/>
<stop offset="1" stop-color="#A9A9AD" stop-opacity="0"/>
</linearGradient>
<linearGradient id="paint9_linear_6_544" x1="149.921" y1="49.9563" x2="149.921" y2="64.2351" gradientUnits="userSpaceOnUse">
<stop stop-color="#A9A9AD"/>
<stop offset="1" stop-color="#A9A9AD" stop-opacity="0"/>
</linearGradient>
<linearGradient id="paint10_linear_6_544" x1="156.967" y1="93.7825" x2="40.1218" y2="94.2273" gradientUnits="userSpaceOnUse">
<stop stop-color="#996DFF"/>
<stop offset="0.5" stop-color="#35E8B3"/>
<stop offset="1" stop-color="#E2D45C"/>
</linearGradient>
<radialGradient id="paint11_radial_6_544" cx="0" cy="0" r="1" gradientUnits="userSpaceOnUse" gradientTransform="translate(85.4323 119.711) rotate(20.8434) scale(80.8857 170.856)">
<stop stop-color="#171226"/>
<stop offset="1" stop-color="#171226" stop-opacity="0"/>
</radialGradient>
<radialGradient id="paint12_radial_6_544" cx="0" cy="0" r="1" gradientUnits="userSpaceOnUse" gradientTransform="translate(105.572 20.4689) rotate(-150.248) scale(18.7486 37.3392)">
<stop stop-color="#261945"/>
<stop offset="1" stop-color="#261945" stop-opacity="0"/>
</radialGradient>
<radialGradient id="paint13_radial_6_544" cx="0" cy="0" r="1" gradientUnits="userSpaceOnUse" gradientTransform="translate(165.991 87.8297) rotate(80.0828) scale(26.6982 33.6646)">
<stop stop-color="#191326"/>
<stop offset="1" stop-color="#191326" stop-opacity="0"/>
</radialGradient>
<linearGradient id="paint14_linear_6_544" x1="90.9498" y1="14.5143" x2="133.752" y2="94.9547" gradientUnits="userSpaceOnUse">
<stop stop-color="#996DFF"/>
<stop offset="0.5" stop-color="#35E8B3"/>
<stop offset="1" stop-color="#E2D45C"/>
</linearGradient>
<radialGradient id="paint15_radial_6_544" cx="0" cy="0" r="1" gradientUnits="userSpaceOnUse" gradientTransform="translate(65.5685 22.4537) rotate(-25.3508) scale(41.7219 85.7421)">
<stop stop-color="#171225"/>
<stop offset="1" stop-color="#171225" stop-opacity="0"/>
</radialGradient>
<radialGradient id="paint16_radial_6_544" cx="0" cy="0" r="1" gradientUnits="userSpaceOnUse" gradientTransform="translate(7.26499 89.0702) rotate(72.9071) scale(35.0422 46.1917)">
<stop stop-color="#191327"/>
<stop offset="1" stop-color="#191327" stop-opacity="0"/>
</radialGradient>
<clipPath id="clip0_6_544">
<rect width="173" height="131" fill="white"/>
</clipPath>
</defs>
</svg>
